# xmcd
#
# Track frame offsets: 
#        150
#        16102
#        31895
#        49896
#        66849
#        88538
#        107216
#        121756
#        138421
#        151088
#        169359
#        182841
#        202797
#        220039
#
# Disc length: 3496 seconds
#
# Revision: 0
# Processed by: cddbd v1.5.2PL0 Copyright (c) Steve Scherf et al.
# Submitted via: ExactAudioCopy v1.0b3
#
DISCID=b40da60e
DTITLE=Garth Brooks - The Road (The Live Recordings) Disc 1
DYEAR=2016
DGENRE=Country
TTITLE0=Standing Outside The Fire
TTITLE1=Rodeo
TTITLE2=Shameless
TTITLE3=If Tomorrow Never Comes
TTITLE4=That Summer
TTITLE5=In Another's Eyes (Duet With Trisha Yearwood)
TTITLE6=Much Too Young (To Feel This Damn Old)
TTITLE7=Unanswered Prayers
TTITLE8=Longneck Bottle
TTITLE9=One Night A Day
TTITLE10=To Make You Feel My Love
TTITLE11=Wrapped Up In You (Featuring Keb Mo)
TTITLE12=The River
TTITLE13=American Pie (Featuring Don McLean)
EXTD=
EXTT0=
EXTT1=
EXTT2=
EXTT3=
EXTT4=
EXTT5=
EXTT6=
EXTT7=
EXTT8=
EXTT9=
EXTT10=
EXTT11=
EXTT12=
EXTT13=
PLAYORDER=
